# xmcd
#
# Track frame offsets: 
#        150
#        15812
#        33555
#        52867
#        71985
#        94040
#        110460
#        123817
#        138787
#        159055
#        173145
#        193009
#        236615
#        256882
#        272977
#        289775
#
# Disc length: 4035 seconds
#
# Revision: 2
# Processed by: cddbd v1.5.1PL0 Copyright (c) Steve Scherf et al.
# Submitted via: ExactAudioCopy v0.90b4
#
DISCID=d00fc110
DTITLE=Toots Thielemans - TOOTS 75 The Birthday Album
DYEAR=1900
DGENRE=
TTITLE0=Manhã  De Carnaval
TTITLE1=Começar De Novo
TTITLE2=Chanson for Victor
TTITLE3=Waltz for Debby
TTITLE4=Blue In Green
TTITLE5=Samba De Orfeu
TTITLE6=Papel Maché 
TTITLE7=Preciso Aprender A Só Ser
TTITLE8=Coraçã o VagaBundo
TTITLE9=Travessia
TTITLE10=Take Five
TTITLE11=Bluesette
TTITLE12=Ne Me Quitte Pas
TTITLE13=Theme for Ketchups
TTITLE14=Changes
TTITLE15=Bluesette
EXTD=
EXTT0=
EXTT1=
EXTT2=from the forthcoming album Paris\n
EXTT3=
EXTT4=
EXTT5=
EXTT6=
EXTT7=
EXTT8=
EXTT9=
EXTT10=
EXTT11=
EXTT12=Live in Brussels\n
EXTT13=previously unreleased\n
EXTT14=previously unreleased\n
EXTT15=live in Brussels\n
PLAYORDER=
